<svg width="50" height="50" viewBox="0 0 50 50" fill="none" xmlns="http://www.w3.org/2000/svg">
<path d="M45 15H5V35H45V15Z" fill="#1F58CF" stroke="#1F58CF" stroke-width="2"/>
<path d="M16.5 10H11C10.4477 10 10 10.4477 10 11V16.5C10 17.0523 10.4477 17.5 11 17.5H16.5C17.0523 17.5 17.5 17.0523 17.5 16.5V11C17.5 10.4477 17.0523 10 16.5 10Z" fill="#1F58CF" stroke="#1F58CF" stroke-width="2"/>
<path d="M27.75 10H22.25C21.6977 10 21.25 10.4477 21.25 11V16.5C21.25 17.0523 21.6977 17.5 22.25 17.5H27.75C28.3023 17.5 28.75 17.0523 28.75 16.5V11C28.75 10.4477 28.3023 10 27.75 10Z" fill="#1F58CF" stroke="#1F58CF" stroke-width="2"/>
<path d="M39 10H33.5C32.9477 10 32.5 10.4477 32.5 11V16.5C32.5 17.0523 32.9477 17.5 33.5 17.5H39C39.5523 17.5 40 17.0523 40 16.5V11C40 10.4477 39.5523 10 39 10Z" fill="#1F58CF" stroke="#1F58CF" stroke-width="2"/>
</svg>
