<svg width="193" height="50" viewBox="0 0 193 50" fill="none" xmlns="http://www.w3.org/2000/svg">
<path d="M45 15H5V35H45V15Z" fill="#1F58CF" stroke="#1F58CF" stroke-width="2"/>
<path d="M16.5 10H11C10.4477 10 10 10.4477 10 11V16.5C10 17.0523 10.4477 17.5 11 17.5H16.5C17.0523 17.5 17.5 17.0523 17.5 16.5V11C17.5 10.4477 17.0523 10 16.5 10Z" fill="#1F58CF" stroke="#1F58CF" stroke-width="2"/>
<path d="M27.75 10H22.25C21.6977 10 21.25 10.4477 21.25 11V16.5C21.25 17.0523 21.6977 17.5 22.25 17.5H27.75C28.3023 17.5 28.75 17.0523 28.75 16.5V11C28.75 10.4477 28.3023 10 27.75 10Z" fill="#1F58CF" stroke="#1F58CF" stroke-width="2"/>
<path d="M39 10H33.5C32.9477 10 32.5 10.4477 32.5 11V16.5C32.5 17.0523 32.9477 17.5 33.5 17.5H39C39.5523 17.5 40 17.0523 40 16.5V11C40 10.4477 39.5523 10 39 10Z" fill="#1F58CF" stroke="#1F58CF" stroke-width="2"/>
<path d="M53.924 22V14.176H55.892L57.14 17.656C57.22 17.888 57.292 18.124 57.356 18.364C57.428 18.596 57.5 18.84 57.572 19.096H57.62C57.692 18.84 57.76 18.596 57.824 18.364C57.888 18.124 57.96 17.888 58.04 17.656L59.264 14.176H61.232V22H59.612V19.132C59.612 18.876 59.624 18.576 59.648 18.232C59.68 17.88 59.712 17.532 59.744 17.188C59.784 16.836 59.82 16.532 59.852 16.276H59.804L59.168 18.34L58.064 21.328H57.032L55.94 18.34L55.328 16.276H55.28C55.312 16.532 55.344 16.836 55.376 17.188C55.416 17.532 55.448 17.88 55.472 18.232C55.496 18.576 55.508 18.876 55.508 19.132V22H53.924ZM63.0646 22V14.176H64.8286V17.188H67.5286V14.176H69.3046V22H67.5286V18.736H64.8286V22H63.0646ZM76.6369 22.144C76.1249 22.144 75.6729 22.076 75.2809 21.94C74.8969 21.796 74.5729 21.576 74.3089 21.28C74.0449 20.976 73.8449 20.592 73.7089 20.128C73.5729 19.664 73.5049 19.112 73.5049 18.472V14.176H75.2809V18.652C75.2809 19.14 75.3329 19.528 75.4369 19.816C75.5409 20.096 75.6929 20.3 75.8929 20.428C76.0929 20.556 76.3409 20.62 76.6369 20.62C76.9249 20.62 77.1729 20.556 77.3809 20.428C77.5889 20.3 77.7449 20.096 77.8489 19.816C77.9609 19.528 78.0169 19.14 78.0169 18.652V14.176H79.7209V18.472C79.7209 19.112 79.6529 19.664 79.5169 20.128C79.3889 20.592 79.1929 20.976 78.9289 21.28C78.6729 21.576 78.3529 21.796 77.9689 21.94C77.5849 22.076 77.1409 22.144 76.6369 22.144ZM81.5334 22V14.176H83.2974V22H81.5334ZM86.0188 18.256C85.7148 18.256 85.4588 18.148 85.2508 17.932C85.0508 17.716 84.9508 17.456 84.9508 17.152C84.9508 16.832 85.0508 16.568 85.2508 16.36C85.4588 16.144 85.7148 16.036 86.0188 16.036C86.3308 16.036 86.5868 16.144 86.7868 16.36C86.9868 16.568 87.0868 16.832 87.0868 17.152C87.0868 17.456 86.9868 17.716 86.7868 17.932C86.5868 18.148 86.3308 18.256 86.0188 18.256ZM86.0188 22.144C85.7148 22.144 85.4588 22.036 85.2508 21.82C85.0508 21.604 84.9508 21.344 84.9508 21.04C84.9508 20.72 85.0508 20.456 85.2508 20.248C85.4588 20.032 85.7148 19.924 86.0188 19.924C86.3308 19.924 86.5868 20.032 86.7868 20.248C86.9868 20.456 87.0868 20.72 87.0868 21.04C87.0868 21.344 86.9868 21.604 86.7868 21.82C86.5868 22.036 86.3308 22.144 86.0188 22.144Z" fill="white"/>
<path d="M57.236 35.144C56.564 35.144 55.948 34.996 55.388 34.7C54.836 34.396 54.392 33.944 54.056 33.344C53.72 32.744 53.552 32.008 53.552 31.136C53.552 30.488 53.648 29.912 53.84 29.408C54.04 28.896 54.312 28.464 54.656 28.112C55 27.76 55.392 27.492 55.832 27.308C56.28 27.124 56.752 27.032 57.248 27.032C57.752 27.032 58.204 27.132 58.604 27.332C59.004 27.532 59.336 27.772 59.6 28.052L58.664 29.12C58.472 28.936 58.264 28.8 58.04 28.712C57.816 28.616 57.564 28.568 57.284 28.568C56.94 28.568 56.62 28.672 56.324 28.88C56.036 29.08 55.804 29.368 55.628 29.744C55.452 30.12 55.364 30.564 55.364 31.076C55.364 31.612 55.448 32.072 55.616 32.456C55.784 32.832 56.016 33.12 56.312 33.32C56.616 33.52 56.964 33.62 57.356 33.62C57.66 33.62 57.932 33.556 58.172 33.428C58.412 33.3 58.624 33.148 58.808 32.972L59.696 34.016C59.36 34.392 58.988 34.676 58.58 34.868C58.172 35.052 57.724 35.144 57.236 35.144ZM63.3204 35.144C62.8164 35.144 62.3444 35.024 61.9044 34.784C61.4644 34.536 61.1044 34.18 60.8244 33.716C60.5524 33.244 60.4164 32.68 60.4164 32.024C60.4164 31.368 60.5524 30.808 60.8244 30.344C61.1044 29.872 61.4644 29.516 61.9044 29.276C62.3444 29.028 62.8164 28.904 63.3204 28.904C63.8164 28.904 64.2844 29.028 64.7244 29.276C65.1644 29.516 65.5204 29.872 65.7924 30.344C66.0724 30.808 66.2124 31.368 66.2124 32.024C66.2124 32.68 66.0724 33.244 65.7924 33.716C65.5204 34.18 65.1644 34.536 64.7244 34.784C64.2844 35.024 63.8164 35.144 63.3204 35.144ZM63.3204 33.716C63.5604 33.716 63.7604 33.648 63.9204 33.512C64.0884 33.376 64.2124 33.18 64.2924 32.924C64.3724 32.668 64.4124 32.368 64.4124 32.024C64.4124 31.68 64.3724 31.38 64.2924 31.124C64.2124 30.868 64.0884 30.672 63.9204 30.536C63.7604 30.4 63.5604 30.332 63.3204 30.332C63.0724 30.332 62.8684 30.4 62.7084 30.536C62.5484 30.672 62.4284 30.868 62.3484 31.124C62.2684 31.38 62.2284 31.68 62.2284 32.024C62.2284 32.368 62.2684 32.668 62.3484 32.924C62.4284 33.18 62.5484 33.376 62.7084 33.512C62.8684 33.648 63.0724 33.716 63.3204 33.716ZM67.4206 35V29.048H68.8606L68.9806 29.816H69.0286C69.2686 29.568 69.5286 29.356 69.8086 29.18C70.0966 28.996 70.4366 28.904 70.8286 28.904C71.2526 28.904 71.5966 28.992 71.8606 29.168C72.1246 29.336 72.3286 29.58 72.4726 29.9C72.7366 29.628 73.0166 29.396 73.3126 29.204C73.6086 29.004 73.9526 28.904 74.3446 28.904C74.9926 28.904 75.4646 29.12 75.7606 29.552C76.0566 29.976 76.2046 30.56 76.2046 31.304V35H74.4406V31.532C74.4406 31.1 74.3806 30.804 74.2606 30.644C74.1486 30.484 73.9646 30.404 73.7086 30.404C73.5566 30.404 73.3966 30.452 73.2286 30.548C73.0606 30.636 72.8806 30.78 72.6886 30.98V35H70.9246V31.532C70.9246 31.1 70.8646 30.804 70.7446 30.644C70.6326 30.484 70.4486 30.404 70.1926 30.404C69.8886 30.404 69.5526 30.596 69.1846 30.98V35H67.4206ZM77.7097 37.208V29.048H79.1497L79.2697 29.636H79.3177C79.5497 29.42 79.8137 29.244 80.1097 29.108C80.4057 28.972 80.7057 28.904 81.0097 28.904C81.4897 28.904 81.9017 29.028 82.2457 29.276C82.5977 29.524 82.8657 29.876 83.0497 30.332C83.2417 30.788 83.3377 31.32 83.3377 31.928C83.3377 32.608 83.2177 33.188 82.9777 33.668C82.7377 34.148 82.4257 34.516 82.0417 34.772C81.6657 35.02 81.2617 35.144 80.8297 35.144C80.5817 35.144 80.3337 35.092 80.0857 34.988C79.8457 34.876 79.6217 34.72 79.4137 34.52L79.4737 35.468V37.208H77.7097ZM80.4217 33.704C80.6217 33.704 80.8057 33.644 80.9737 33.524C81.1497 33.404 81.2857 33.216 81.3817 32.96C81.4777 32.696 81.5257 32.36 81.5257 31.952C81.5257 31.592 81.4857 31.296 81.4057 31.064C81.3337 30.824 81.2217 30.644 81.0697 30.524C80.9177 30.404 80.7257 30.344 80.4937 30.344C80.3177 30.344 80.1457 30.388 79.9777 30.476C79.8177 30.556 79.6497 30.692 79.4737 30.884V33.32C79.6337 33.456 79.7937 33.556 79.9537 33.62C80.1217 33.676 80.2777 33.704 80.4217 33.704ZM87.1446 35.144C86.6406 35.144 86.1686 35.024 85.7286 34.784C85.2886 34.536 84.9286 34.18 84.6486 33.716C84.3766 33.244 84.2406 32.68 84.2406 32.024C84.2406 31.368 84.3766 30.808 84.6486 30.344C84.9286 29.872 85.2886 29.516 85.7286 29.276C86.1686 29.028 86.6406 28.904 87.1446 28.904C87.6406 28.904 88.1086 29.028 88.5486 29.276C88.9886 29.516 89.3446 29.872 89.6166 30.344C89.8966 30.808 90.0366 31.368 90.0366 32.024C90.0366 32.68 89.8966 33.244 89.6166 33.716C89.3446 34.18 88.9886 34.536 88.5486 34.784C88.1086 35.024 87.6406 35.144 87.1446 35.144ZM87.1446 33.716C87.3846 33.716 87.5846 33.648 87.7446 33.512C87.9126 33.376 88.0366 33.18 88.1166 32.924C88.1966 32.668 88.2366 32.368 88.2366 32.024C88.2366 31.68 88.1966 31.38 88.1166 31.124C88.0366 30.868 87.9126 30.672 87.7446 30.536C87.5846 30.4 87.3846 30.332 87.1446 30.332C86.8966 30.332 86.6926 30.4 86.5326 30.536C86.3726 30.672 86.2526 30.868 86.1726 31.124C86.0926 31.38 86.0526 31.68 86.0526 32.024C86.0526 32.368 86.0926 32.668 86.1726 32.924C86.2526 33.18 86.3726 33.376 86.5326 33.512C86.6926 33.648 86.8966 33.716 87.1446 33.716ZM91.2448 35V29.048H92.6848L92.8048 29.804H92.8528C93.1008 29.556 93.3808 29.344 93.6928 29.168C94.0048 28.992 94.3608 28.904 94.7608 28.904C95.4168 28.904 95.8888 29.12 96.1768 29.552C96.4648 29.976 96.6088 30.56 96.6088 31.304V35H94.8448V31.532C94.8448 31.1 94.7848 30.804 94.6648 30.644C94.5528 30.484 94.3688 30.404 94.1128 30.404C93.8888 30.404 93.6968 30.456 93.5368 30.56C93.3768 30.656 93.2008 30.796 93.0088 30.98V35H91.2448ZM100.776 35.144C100.208 35.144 99.696 35.02 99.24 34.772C98.784 34.524 98.424 34.168 98.16 33.704C97.896 33.24 97.764 32.68 97.764 32.024C97.764 31.376 97.896 30.82 98.16 30.356C98.432 29.892 98.784 29.536 99.216 29.288C99.648 29.032 100.1 28.904 100.572 28.904C101.14 28.904 101.612 29.032 101.988 29.288C102.364 29.536 102.644 29.876 102.828 30.308C103.012 30.74 103.104 31.224 103.104 31.76C103.104 31.912 103.096 32.064 103.08 32.216C103.064 32.36 103.048 32.476 103.032 32.564H99.132L99.108 31.34H101.592C101.592 31.028 101.516 30.772 101.364 30.572C101.212 30.364 100.96 30.26 100.608 30.26C100.416 30.26 100.228 30.312 100.044 30.416C99.86 30.52 99.708 30.7 99.588 30.956C99.468 31.212 99.412 31.568 99.42 32.024C99.428 32.472 99.508 32.824 99.66 33.08C99.82 33.336 100.02 33.52 100.26 33.632C100.5 33.736 100.752 33.788 101.016 33.788C101.248 33.788 101.468 33.756 101.676 33.692C101.892 33.62 102.104 33.524 102.312 33.404L102.888 34.484C102.592 34.692 102.256 34.856 101.88 34.976C101.504 35.088 101.136 35.144 100.776 35.144ZM104.323 35V29.048H105.763L105.883 29.804H105.931C106.179 29.556 106.459 29.344 106.771 29.168C107.083 28.992 107.439 28.904 107.839 28.904C108.495 28.904 108.967 29.12 109.255 29.552C109.543 29.976 109.687 30.56 109.687 31.304V35H107.923V31.532C107.923 31.1 107.863 30.804 107.743 30.644C107.631 30.484 107.447 30.404 107.191 30.404C106.967 30.404 106.775 30.456 106.615 30.56C106.455 30.656 106.279 30.796 106.087 30.98V35H104.323ZM113.482 35.132C112.746 35.132 112.218 34.92 111.898 34.496C111.578 34.064 111.418 33.508 111.418 32.828V30.428H110.614V29.12L111.526 29.048L111.73 27.224H113.194V29.048H114.622V30.428H113.194V32.804C113.194 33.14 113.262 33.384 113.398 33.536C113.542 33.68 113.73 33.752 113.962 33.752C114.058 33.752 114.154 33.744 114.25 33.728C114.346 33.712 114.438 33.688 114.526 33.656L114.814 34.892C114.662 34.956 114.47 35.012 114.238 35.06C114.014 35.108 113.762 35.132 113.482 35.132ZM118.33 35V27.176H120.094V33.512H123.19V35H118.33ZM124.397 35V29.048H126.161V35H124.397ZM125.273 28.172C124.977 28.172 124.737 28.088 124.553 27.92C124.369 27.752 124.277 27.528 124.277 27.248C124.277 26.968 124.369 26.744 124.553 26.576C124.737 26.408 124.977 26.324 125.273 26.324C125.569 26.324 125.809 26.408 125.993 26.576C126.177 26.744 126.269 26.968 126.269 27.248C126.269 27.528 126.177 27.752 125.993 27.92C125.809 28.088 125.569 28.172 125.273 28.172ZM130.834 35.144C130.57 35.144 130.306 35.08 130.042 34.952C129.778 34.816 129.526 34.62 129.286 34.364H129.238L129.094 35H127.714V26.588H129.478V28.652L129.43 29.564C129.654 29.356 129.902 29.196 130.174 29.084C130.446 28.964 130.722 28.904 131.002 28.904C131.482 28.904 131.898 29.028 132.25 29.276C132.602 29.524 132.87 29.876 133.054 30.332C133.246 30.78 133.342 31.308 133.342 31.916C133.342 32.596 133.222 33.18 132.982 33.668C132.742 34.148 132.43 34.516 132.046 34.772C131.67 35.02 131.266 35.144 130.834 35.144ZM130.426 33.704C130.626 33.704 130.81 33.644 130.978 33.524C131.154 33.404 131.29 33.216 131.386 32.96C131.482 32.696 131.53 32.36 131.53 31.952C131.53 31.592 131.49 31.296 131.41 31.064C131.338 30.824 131.226 30.644 131.074 30.524C130.922 30.404 130.73 30.344 130.498 30.344C130.322 30.344 130.15 30.388 129.982 30.476C129.822 30.556 129.654 30.692 129.478 30.884V33.32C129.63 33.456 129.79 33.556 129.958 33.62C130.126 33.676 130.282 33.704 130.426 33.704ZM134.593 35V29.048H136.033L136.153 30.092H136.201C136.417 29.692 136.673 29.396 136.969 29.204C137.273 29.004 137.581 28.904 137.893 28.904C138.061 28.904 138.201 28.916 138.313 28.94C138.425 28.956 138.521 28.984 138.601 29.024L138.265 30.524C138.169 30.5 138.077 30.484 137.989 30.476C137.901 30.46 137.793 30.452 137.665 30.452C137.441 30.452 137.205 30.532 136.957 30.692C136.717 30.852 136.517 31.136 136.357 31.544V35H134.593ZM140.534 35.144C140.174 35.144 139.858 35.064 139.586 34.904C139.322 34.744 139.118 34.528 138.974 34.256C138.83 33.984 138.758 33.68 138.758 33.344C138.758 32.704 139.022 32.212 139.55 31.868C140.078 31.516 140.93 31.28 142.106 31.16C142.098 30.984 142.058 30.836 141.986 30.716C141.922 30.588 141.822 30.492 141.686 30.428C141.55 30.356 141.378 30.32 141.17 30.32C140.922 30.32 140.67 30.364 140.414 30.452C140.158 30.54 139.882 30.668 139.586 30.836L138.962 29.684C139.218 29.524 139.482 29.388 139.754 29.276C140.026 29.156 140.306 29.064 140.594 29C140.89 28.936 141.194 28.904 141.506 28.904C142.018 28.904 142.446 29.004 142.79 29.204C143.142 29.396 143.41 29.692 143.594 30.092C143.778 30.484 143.87 30.988 143.87 31.604V35H142.43L142.31 34.388H142.262C142.006 34.612 141.738 34.796 141.458 34.94C141.178 35.076 140.87 35.144 140.534 35.144ZM141.122 33.764C141.322 33.764 141.498 33.72 141.65 33.632C141.802 33.544 141.954 33.424 142.106 33.272V32.264C141.69 32.32 141.358 32.392 141.11 32.48C140.87 32.568 140.698 32.676 140.594 32.804C140.498 32.924 140.45 33.06 140.45 33.212C140.45 33.396 140.51 33.536 140.63 33.632C140.758 33.72 140.922 33.764 141.122 33.764ZM145.362 35V29.048H146.802L146.922 30.092H146.97C147.186 29.692 147.442 29.396 147.738 29.204C148.042 29.004 148.35 28.904 148.662 28.904C148.83 28.904 148.97 28.916 149.082 28.94C149.194 28.956 149.29 28.984 149.37 29.024L149.034 30.524C148.938 30.5 148.846 30.484 148.758 30.476C148.67 30.46 148.562 30.452 148.434 30.452C148.21 30.452 147.974 30.532 147.726 30.692C147.486 30.852 147.286 31.136 147.126 31.544V35H145.362ZM150.885 37.328C150.709 37.328 150.553 37.316 150.417 37.292C150.289 37.268 150.165 37.232 150.045 37.184L150.357 35.888C150.445 35.912 150.517 35.924 150.573 35.924C150.637 35.932 150.697 35.936 150.753 35.936C151.049 35.936 151.277 35.86 151.437 35.708C151.605 35.564 151.725 35.38 151.797 35.156L151.881 34.844L149.589 29.048H151.365L152.217 31.604C152.305 31.876 152.385 32.152 152.457 32.432C152.529 32.712 152.605 33 152.685 33.296H152.733C152.797 33.016 152.861 32.736 152.925 32.456C152.997 32.168 153.069 31.884 153.141 31.604L153.861 29.048H155.553L153.489 35.06C153.297 35.556 153.089 35.972 152.865 36.308C152.649 36.644 152.381 36.896 152.061 37.064C151.749 37.24 151.357 37.328 150.885 37.328Z" fill="white"/>
</svg>
