<svg width="16" height="16" viewBox="0 0 16 16" fill="currentColor" xmlns="http://www.w3.org/2000/svg">
<path d="M14.81 1.36701C14.665 1.25301 14.47 1.22701 14.3 1.30201L0.799999 7.20101C0.445999 7.34301 0.396999 7.86801 0.718999 8.07301L4 10.301V14.535C3.986 14.988 4.603 15.214 4.884 14.855L7.2 12.083C7.229 12.121 7.257 12.16 7.298 12.19L11.824 15.481C12.108 15.7 12.558 15.519 12.61 15.165L14.992 1.84801C15.024 1.66601 14.954 1.48201 14.809 1.36801L14.81 1.36701ZM11.603 3.57101L4.472 9.41301L2.031 7.75501L11.603 3.57101ZM5 10.272L12.634 4.01901L5 13.157V10.272ZM11.767 14.203L7.886 11.382C7.864 11.366 7.838 11.361 7.814 11.349L13.493 4.55001L11.766 14.203H11.767Z" fill="currentColor"/>
</svg>
